<svg id="Capa_1" data-name="Capa 1" xmlns="http://www.w3.org/2000/svg" viewBox="0 0 1600 803"><defs><style>.cls-1{fill:#1b4634;}.cls-2{fill:#7a901f;}</style></defs><path class="cls-1" d="M763.86,243.77c20.06.06,40.18-1.78,60.18,1,19.22,2.72,36.18,10.77,51.23,22.8,8.6,6.87,12.75,16.41,13.65,27.21,1.22,14.74-6.89,25.37-21.34,28.52a34,34,0,0,1-4.57.76c-17.15,1.38-34.34,1.64-51.53,1.47-7.69-.07-9.87-3-8.78-10.62,2-14.18-3.54-21.88-17.91-23.25a266.91,266.91,0,0,0-51.5.16c-14.9,1.47-23.31,9.9-25.37,24.82-5.87,42.66-10.93,85.44-17.55,128-3.57,22.9-7.08,45.81-10.83,68.68-2.68,16.31,2.13,23.35,18.6,25a267,267,0,0,0,52.66-.25c15.32-1.53,22.24-8.48,24.61-23.72q6.57-42.08,12.82-84.19c1.24-8.24-1.07-11.14-9.49-11.25-10.42-.13-20.86.36-31.28.27-10.77-.1-13.21-4.25-8.34-13.9,6.28-12.49,17.42-18.6,30.11-22.68,14.69-4.74,29.86-6.05,45.16-6.37q27.23-.56,54.46-.91c8.77-.11,9.92,1.33,8.67,9.76-7.08,47.56-14.51,95.08-21,142.72-2.2,16-9.83,27.19-23.3,35.17-23,13.66-47.71,21.86-74.65,22.14-28.39.29-56.8.73-85.18.22-20.64-.36-39.88-6.7-57.56-17.48C599.55,558,592,544.36,595,524.65c4.68-30.73,8.29-61.62,12.23-92.46,5.11-40,10-80.11,16.47-119.95,4-24.81,17.65-42.06,40.19-53.05,21.4-10.45,43.52-16.61,67.54-15.5C742.2,244.18,753,243.77,763.86,243.77Z"/><path class="cls-1" d="M1533.62,581.4c-11.2,0-22.41-.19-33.6.09-5.33.13-7.54-1.8-8.1-7.17-1.74-16.71-3.91-33.37-5.91-50.05-.84-7-2.06-8.23-9.21-8.24-29.55,0-59.11.13-88.66,0-5.86,0-9.34,2.3-11.65,7.51-4.14,9.35-7.75,19-13.43,27.56-18.43,27.68-49,41.32-84.29,31.48-5.58-1.56-6.14-3.14-3.73-9,10.09-24.45,21.19-48.45,30.87-73.09,18.14-46.18,37.18-92,56.45-137.72,15.75-37.36,32.4-74.34,46.91-112.22,1.77-4.62,4.57-6.63,9.54-6.61,19.31.06,38.63-.15,57.94-.18,19.49,0,35.52,7.66,48.75,21.77a46.47,46.47,0,0,1,12.57,26.79c4.93,40.25,9.16,80.61,14.82,120.76,7.32,52,14.6,104,21.51,156.1.2,1.53.3,3.09.64,4.59,1.16,5.13-1,7.13-6.07,7.08-11.79-.1-23.57,0-35.35,0Zm-93.88-112.07v0c9.85,0,19.69,0,29.53,0,9.34,0,10.15-1.22,8.53-10.61-6.67-38.79-14-77.48-17.68-116.71-.23-2.38.51-6.14-2.13-6.57s-2.94,3.41-3.91,5.56c-17.73,39.4-32.8,79.94-50.89,119.19-2.87,6.22-1.08,9.07,5.87,9.14C1419.29,469.41,1429.52,469.33,1439.74,469.33Z"/><path class="cls-2" d="M261.83,527.14a138.31,138.31,0,0,1-14.73-19.21c-22.21-35.59-31.66-74.29-27.22-116,2.71-25.47,11.75-49,24.93-70.86,24.76-41,61.16-67.65,106.7-80.4,44-12.31,87.15-7.79,127.9,14.15,46,24.76,76,62.79,89.41,112.71,10.61,39.51,3.35,75.87-28.49,104.67a101.77,101.77,0,0,1-25.62,16.56c-5,2.35-6.82.86-7.63-4.64-.86-5.84.25-10.32,6.4-12.39.53-.18.94-.71,1.47-.91,18-6.7,20-22.72,22.39-38.51.75-5-1.15-7.56-6.68-7.38-7.13.23-14.3.13-21.43-.3-5-.31-7,1.77-7.23,6.54a133.59,133.59,0,0,1-3.37,24.6c-.44,1.88-.68,4.07-2.8,4.75-6.6,2.13-13.19,4.34-19.92,6-2.78.67-2.68-1.84-2.28-3.93,1.71-8.89,3.35-17.79,5-26.69,1.74-9.18.22-11-9.15-11-17.58.06-35.16.24-52.74.05-5.14-.06-7.31,1.37-7.2,6.86.34,16.8.17,33.61.44,50.41.05,3.57-1.17,5.27-4.53,6.15-20.82,5.5-40.79,14.39-62.66,15.71-2,.12-3.95.63-4.6,2.83-.72,2.39.89,4,2.34,5.58,10.34,11.16,20.8,22.22,31,33.48C383,558.49,394.47,571,406.52,583c1.18,1.18,2.8,2.5,2.16,4.43-.78,2.37-3.1,2-4.94,2q-66.66.45-119-40.78c-1.6-1.26-3.15-2.53-3.15-2.53A174,174,0,0,1,261.83,527.14ZM409.71,368.52h0c0,9.27.1,18.55,0,27.81-.07,4.4,1.84,6.7,6.17,6.41,19.29-1.3,38.6-.65,57.9-.54,5.05,0,6.33-2.49,6-6.91-1-14.63-2.42-29.2-4.44-43.74-.89-6.36-4.11-8.89-9.89-10.07-15.9-3.25-32-4.74-48.11-6.66-6-.72-7.55.8-7.57,7.05C409.69,350.76,409.71,359.64,409.71,368.52Zm-23.11,0h-.06c0-9.26-.05-18.51,0-27.76,0-4.3-1.7-6.47-6.21-6.24a406.47,406.47,0,0,0-46,4.6c-3.07.51-5.17,2.05-5.75,5.5-2.75,16.53-4.56,33.16-5.68,49.87-.46,6.86,1,8.42,7.68,8.35,16.37-.17,32.75-.52,49.12-.64,4.93,0,6.93-2.28,6.87-7.08C386.52,386.28,386.6,377.41,386.6,368.55Zm.21,90.41h-.34c0-8.49,0-17,0-25.46,0-7.33-.9-8.23-8.4-8.25-15.62-.05-31.24.16-46.86-.12-5.57-.09-7.71,1.83-7.33,7.39,1.1,16.37,4.16,32.46,6.75,48.61a7.35,7.35,0,0,0,6.39,6.51,213.59,213.59,0,0,0,43,4.51c4.88,0,6.91-2.33,6.83-7.15C386.71,476.32,386.81,467.64,386.81,459Zm22.72-168.89H410c-.22,5-.48,10-.66,15-.16,4.6,1.65,6.92,6.72,7.27,13.82.95,27.74,1.3,41.32,4.49,2.73.64,5.64,1.51,7.59-.77s.39-5.24-.49-7.63c-2.85-7.76-6-15.4-9.08-23.08a8.74,8.74,0,0,0-4.47-5.1c-11.34-5-23.36-7.76-35.43-10.19-4.43-.9-6.26,1.68-6.05,6.12C409.7,280.81,409.53,285.44,409.53,290.07ZM285.67,402.66c12.29.13,12.61-.35,13.33-11.31.79-11.9,1.51-23.83,3.64-35.6,1.14-6.31-.77-8.19-6.67-6.27-8.42,2.73-16.78,5.68-25.1,8.71a13.07,13.07,0,0,0-8,7.1,117.6,117.6,0,0,0-8.23,28.15c-1.18,7.5.64,9.08,8.46,9.27S278.89,401.37,285.67,402.66ZM387,290h.12c0-4.81-.11-9.63,0-14.44.14-4.65-2-6.28-6.43-5.56a184.05,184.05,0,0,0-27.51,6.45c-2.67.87-5.15,2.29-6.23,4.81-3.95,9.17-7.91,18.36-11.26,27.76-1.7,4.75.17,6.74,5.1,6,13.34-2.07,26.78-2.8,40.24-3.29,4.08-.15,6-2.06,5.94-6.1C387,300.37,387,295.17,387,290ZM276.75,425.18v-.5c-4.81,0-9.63,0-14.44,0-6.14,0-7.63,1.54-6.6,7.56a109.25,109.25,0,0,0,7.55,26,16.1,16.1,0,0,0,7.48,8.34c9,4.66,18.86,7.18,28.2,11,3.64,1.49,5.6-.7,5.5-4.28-.08-3-.84-6.08-1.18-9.13-1.16-10.7-2.24-21.41-3.39-32.11-.52-4.8-3.09-7.13-8.1-6.91S281.75,425.18,276.75,425.18Zm243.11-23.12v.4c4.24,0,8.47.05,12.71,0,5-.07,6.56-2.54,5.87-7.51-1.19-8.65-4-16.86-6.35-25.19-1.43-5.15-3.91-10-9.89-11.9-5.5-1.74-10.84-4-16.25-6s-8.1-.29-6.95,5.44a182.65,182.65,0,0,1,3.93,37.87c0,4.62,2.08,7.24,7.09,7C513.28,401.92,516.58,402.06,519.86,402.06ZM289,327.13c5.93-2.25,12.88-3.41,18.82-7,3.68-2.24,3.93-6.83,5.46-10.5.88-2.12,1.67-4.29,2.42-6.47.61-1.74,2.15-3.77.28-5.29s-4-.19-5.73,1c-4.5,3.23-9.11,6.35-13.26,10s-8.59,7.65-11.19,12.93C284.43,324.68,284,327.07,289,327.13Zm0,173.29c-1.48.3-3.09-.31-3.34,1.15a4.14,4.14,0,0,0,1.16,3.07c8.58,8.86,17.69,17,29.21,22,1,.44,2.18,1,3.26.09,1.33-1.13.75-2.49.19-3.69-2.35-5-4.69-10.09-7.23-15a5.44,5.44,0,0,0-3-2.53C302.49,503.62,295.59,502,289.07,500.42ZM512,328.24a10,10,0,0,0-.69-1.65c-5.73-8.94-14.08-15.17-22.39-21.4-.89-.67-2.17-1.19-3.14-.08-.84.95-.47,2.16-.22,3.3a27.68,27.68,0,0,0,23.72,21.43C510.79,330,512,330.29,512,328.24Z"/><path class="cls-1" d="M1170.45,244c20.26.24,40.57-1,60.79,1.26A96.71,96.71,0,0,1,1282.78,267a43.49,43.49,0,0,1,8.9,9.86c13.58,20.8,4.83,43-19.29,48.92a56.52,56.52,0,0,1-13.75,1.87c-12.55,0-25.11,0-37.66-.33-8.55-.24-10.78-3-10.47-11.5.06-1.73.16-3.47.14-5.21-.12-10.92-4.53-17.11-15.37-18.21a256.57,256.57,0,0,0-59.53.61c-10.59,1.39-17.07,9.31-19,21.32-4.2,26.9-8.15,53.85-12.29,80.76-5.87,38.18-10.89,76.47-15.75,114.79-2,15.57,3.73,23.65,19.5,25.3,16,1.67,32,1.23,48,0,7-.54,13.28-3.93,19.14-7.79a15.57,15.57,0,0,0,7.32-11.9c.81-8.07,1.65-16.14,2.58-24.19.79-6.8,2.93-8.55,9.81-8.56q34.18-.06,68.37-.16c6.65,0,7.48.75,6.89,7.33-.74,8.08-1.91,16.12-2.41,24.21-1.46,23.85-14.54,39.63-34.8,50.28a132.65,132.65,0,0,1-52.55,15.18,727.84,727.84,0,0,1-109.41-.17,104.25,104.25,0,0,1-52.71-19.29c-12.61-9-18.47-20.9-16.57-36.42,4.94-40.45,10.81-80.77,16.81-121.07,4.41-29.61,9.38-59.2,12-89,2.31-26.75,16.58-43.15,39.25-54.2,20.35-9.92,41.39-16.87,64.57-15.57C1146.47,244.55,1158.47,244,1170.45,244Z"/><path class="cls-1" d="M270.32,562.21c-9.71,9.33-20.3,17-34.56,17.32l-7.64.31c-3.44.16-6.89.47-10.34.48q-56,.21-111.91.31H90.24c-20.13,0-40.28,0-60.41.15-6.32,0-5.6-3.62-4.28-7.71l.22-1.86c.23-1.35.47-2.69.7-4l.58-4c.19-1.37.39-2.72.59-4.08l.52-4.05L43.92,442.68l0-.14,12.91-92,.23-1.84c.26-1.74.5-3.47.76-5.2l.44-2.9c.18-1.35.38-2.72.58-4.08l.46-2.91c.21-1.37.4-2.75.61-4.13l.58-3.93c.27-1.74.55-3.49.81-5.23l.42-2.91c.23-1.37.45-2.74.67-4.09l.43-2.83c.26-1.37.51-2.74.77-4.1l.29-1.75.87-4.05,2.52-8.67a61.07,61.07,0,0,1,7.45-15.82l1.48-2.35a102.24,102.24,0,0,1,9.3-12.65C97.63,247.15,113,238.74,133.92,240c5.2.3,10.41.76,15.61.81,4.84.05,6.51,2.06,5.8,6.85-3.28,22.15-6.4,44.33-9.56,66.49-2.77,19.3-5.2,38.63-8.8,57.79-.43,2.69-.85,5.38-1.28,8.07l-.28,1.81c-.67,4.41-1.35,8.84-2,13.25l-1.26,9.24-.18,1.85c-.29,2.11-.57,4.22-.86,6.32l-.24,1.81-.87,6.3-.29,1.82c-.28,2.1-.55,4.21-.82,6.31l-.34,2.95q-1,7.81-2,15.64l-.32,2.89c-.62,5.53-1.34,11.24-2.2,17.09q-1.47,10-3.24,19.35l-3.69,31.28-.25,1.84c-.31,2.48-.64,5-1,7.43l0,1.89c1.3,6.76,6.22,7,11.76,6.93,26.82-.17,44.19,6.49,117.87-.32,2.57-.23,11-1,18.09,3.6A19.21,19.21,0,0,1,272.76,556,7.22,7.22,0,0,1,270.32,562.21Z"/><path class="cls-1" d="M901.05,584.91c-4-.22-8.12-.24-12.14-.68-7.63-.84-9.26-2.91-8.26-10.59,3.54-27,6.88-54,10.81-80.95Q909,372.62,924.56,252.27c.72-5.58,2.74-8.17,8.71-8.16,22.59,0,45.19-.34,67.78-.48,8.91,0,9.5.94,8.39,9.75-8.39,66.48-18.59,132.7-28.33,199-3.68,25-7.88,50-10.66,75.12C966.42,564,931.55,587.72,901.05,584.91Z"/><path class="cls-2" d="M589.53,434.85c2.08,8.21.77,16.13-.86,24-4.38,21.3-10.63,41.9-23.28,60-13.68,19.53-31,34.38-53.14,44.09-13.2,5.79-26.78,8.31-40.73,9.93-10.38,1.2-11.86,2.41-12,12.72,0,1,0,1.93,0,2.9,0,1.74.09,3.72-1.79,4.55s-2.79-.93-3.83-1.91c-19.67-18.47-38.29-37.94-56.11-58.2-2.92-3.32-6.18-6.34-9.32-9.46-1.25-1.24-2.82-2.48-2.24-4.38s2.44-1.91,4.22-2.29c13.87-2.93,27.78-5.77,41.53-9.21,10.83-2.72,21.39-6.5,32.2-9.3,5-1.3,9.6-3.45,14.43-5.07,1.74-.59,3.75-2,5.42-.48,1.86,1.72.75,4.07.09,6-1.24,3.65-2.86,7.16-4.25,10.76-2.13,5.57-.95,7.3,5.15,7.24a131,131,0,0,0,21.28-2c16.32-2.81,31.94-8,45.61-17.23,15.79-10.68,25.59-26.29,31.77-44.17C585.74,447.24,587.57,441,589.53,434.85Z"/><path class="cls-2" d="M395.51,218.94c-7.46-.45-16.23,1.32-25.08,1.7-1.6.06-3.75.87-4.64-1.22-1-2.4,1.1-3.49,2.65-4.49,25.47-16.36,49.78-34.37,74.19-52.21,17.56-12.83,36.16-24.21,52.95-38.11,1.29-1.07,2.52-3,4.37-2,2.28,1.13,1.15,3.37.89,5.2-1.87,13.36-4,26.67-6.95,39.85a20.87,20.87,0,0,1-8.3,12.64c-16.79,12.91-33.75,25.58-51.3,37.47a16.42,16.42,0,0,1-12,2.85A203.63,203.63,0,0,0,395.51,218.94Z"/><path class="cls-1" d="M491.85,672.49c.21,1.91.41,3.72-.67,4.94-.56.63-1.55,1-3.24,1-4.26,0-4.48-2.49-4.43-5.72.13-9.26.07-18.53.17-27.79,0-3.53-.29-6.67-4.63-7.4-1.25-.22-2.24-.89-2.25-2.23a2.73,2.73,0,0,1,2.54-2.73c2.9-.5,4.36-2.08,4.55-5.05.56-8.86,6.23-13.28,14-15.6a33.77,33.77,0,0,1,16.05-.44c2.11.39,4.39,1,4,3.93s-2.47,3-4.76,2.85a56.86,56.86,0,0,0-12.71.07,10.53,10.53,0,0,0-7.76,4.49c-1.46,2.19-2.18,4.61-1.22,7.14,1.06,2.81,3.69,2.3,5.95,2.35q8.4.2,16.79.27c3.08,0,4.53,1.39,4.56,4.59.11,12.35.26,24.71.57,37.06.09,3.43-1.49,4.33-4.54,4.32S511,677,511,674.2c.13-9.07.23-18.14.09-27.21-.1-6.65-1.63-8-8.36-8.2-1.54,0-3.09,0-4.63,0-4.78-.07-7.2,2.12-6.91,7.05.13,2.29.1,2.65.17,6.95,0,.92,0,.73,0,5v5.08A84.44,84.44,0,0,0,491.85,672.49Z"/><path class="cls-1" d="M1179,655.71c0-5.79,0-11.58,0-17.36,0-1.61-.78-3.91,1.5-4.44,2.1-.48,4.79-1.19,6,1.78,1,2.71,2.3,1.08,3.47.28,7.92-5.42,15.82-4.81,22.3,2.32,2.53,2.79,3.33.72,4.86-.64,8.42-7.46,18.57-6.91,24.15,1.26a19.35,19.35,0,0,1,3.12,10.34c.31,8.48.14,17,.35,25.47.07,2.86-1.13,3.68-3.76,3.66s-4.44-.44-4.36-3.76c.17-7.32.28-14.66.09-22-.22-8.35-3.57-12.34-9.85-12.35-6.64,0-11.05,4.91-11.14,12.73-.08,7.14-.06,14.28.24,21.41.13,3.24-1.15,3.92-4,3.9s-4.3-.43-4.22-3.75c.18-7.9.25-15.82,0-23.73-.25-7.45-4.18-11.37-10.45-11.1s-10.18,4.64-10.31,11.58q-.2,11,0,22c.06,3.08-.11,5.06-4.17,5s-4.11-2.24-4-5.21c.12-5.78,0-11.57,0-17.36Z"/><path class="cls-1" d="M64.07,679.86c-6.18.08-10.52-.78-14.6-2.68-2.49-1.16-4.11-3-3-6,1.27-3.62,3.67-1.73,5.67-1a26.08,26.08,0,0,0,16.47,1.12,9.7,9.7,0,0,0,7.38-7.42c.9-3.9-1.14-6.68-4-9-4.09-3.35-9-5.16-13.64-7.58-6.56-3.44-11.54-8-10.79-16.16.6-6.62,6.73-12.47,14.88-14.33a31.4,31.4,0,0,1,18.25.92c2.13.79,4,1.89,3,4.66-.9,2.44-2.7,3-5.12,2.39-4.92-1.29-9.89-2-14.83-.22-3.16,1.12-6.19,2.65-6.7,6.46s1.91,6.1,4.89,7.81c3.51,2,7.09,3.91,10.67,5.81,11.09,5.89,15.25,12.78,13.1,21.81-1.87,7.86-10.14,13-21.49,13.37Z"/><path class="cls-1" d="M981.89,655.61c.08-13.88,9.68-23.56,23.24-23.45,12.68.1,21.67,10.37,21.46,24.5-.21,13.45-9.82,23-23.11,23S981.79,670.18,981.89,655.61Zm35.79-.35c-.08-.72-.13-2.46-.45-4.16-1.48-7.82-6.25-12.11-13.23-12-6.73.11-11.9,4.88-13.09,12.35a26.07,26.07,0,0,0,.68,12c1.5,4.78,4.62,8.06,9.6,9a12.67,12.67,0,0,0,12.47-4.4C1016.63,664.7,1017.45,660.6,1017.68,655.26Z"/><path class="cls-1" d="M162.93,656.19c0,5.79.07,11.58,0,17.37-.07,4.66-2.13,6.11-6.15,3.73-2.68-1.59-4.41-1-6.84.17-13.85,6.54-25.6-.75-25.71-15.88,0-7.34.09-14.68.21-22,0-2.62-.55-5.7,3.68-5.83s4.55,2.47,4.47,5.71c-.18,7.14-.45,14.29-.26,21.42.2,7.53,4,11.45,10.31,11.27,7.2-.2,12-4.82,12-11.88,0-7.33-.08-14.67-.2-22,0-2.87.56-4.9,4.08-4.89s4.85,1.34,4.73,4.87c-.2,6-.06,12-.06,18Z"/><path class="cls-1" d="M319,656c.07-14.4,9.64-24.16,23.75-24.21,13.38-.06,22.75,10,22.78,24.5,0,13.41-10.26,23-24.44,22.84C328.24,679,319,669.28,319,656Zm23.52-16.87c-8-.15-14.18,6.47-14.49,15.56-.34,10.21,5.14,16.94,13.86,17,8.27.07,14.26-7,14.36-17C356.36,646.15,350.35,639.32,342.55,639.16Z"/><path class="cls-1" d="M572.31,631.89c12.36.08,18.33,5.86,19.34,18.19.65,8-.84,16,1.91,24.06,1.52,4.45-3.39,4.91-6.12,3.93-3.64-1.3-6.57-.54-9.93.53a19.51,19.51,0,0,1-14.15-.74c-8.92-4-10.21-14.62-2.46-20.63,4.89-3.79,10.87-4.81,16.67-6.25,2.17-.53,4.92-.46,5.34-3.5a7,7,0,0,0-3.69-7.28c-4.9-3-10.07-1.74-15.21-.94-2,.3-4.41,1.84-5.31-1.31s1.73-3.87,3.92-4.62A28.45,28.45,0,0,1,572.31,631.89Zm12,30.31c-.38-2.23.95-5.77-3.81-5.8-7.69,0-15.46,4.39-15.73,9.15-.21,3.92,3.32,7.16,8,7.34C580,673.15,584.13,669.44,584.33,662.2Z"/><path class="cls-1" d="M815.13,660.93q.29,6.65.58,13.29c.06,1.51.55,3.25-1.27,4.07-1.66.75-3.81,1-4.81-.57-2.11-3.26-3.88-1.63-6.17-.36a18.41,18.41,0,0,1-14,1.5c-4.59-1.2-8.18-3.66-9.24-8.55-1.09-5,.13-9.58,4.17-13.08,4.74-4.12,10.6-5.25,16.56-6.18,2.29-.36,5.66.58,6-3a7.86,7.86,0,0,0-4.49-8.1c-4.41-2.24-9-1.36-13.61-.76-2,.26-4.82,2.37-5.79-1.31s2.45-3.77,4.6-4.54a27.43,27.43,0,0,1,10.85-1.27c11,.64,15.73,5.17,16.43,16.12.27,4.23.05,8.48.05,12.73Zm-10.55-4.68c-5.85.87-10.68,1.48-14.37,5-4.13,3.91-2.88,9.85,2.28,11.45,7.55,2.33,16-4.53,15.21-12.37C807.45,657.61,806.66,655.8,804.58,656.25Z"/><path class="cls-1" d="M1324.65,656.05c0,6,0,12,0,17.93,0,1.53,1.08,3.93-1.74,4-1.92.06-4.69.94-5.4-1.9-.84-3.37-2.15-1.61-3.47-.61-6.45,4.87-13.46,5.82-20.61,2.08-6.84-3.57-8.29-10.23-8.42-17.25-.14-7.71,0-15.43-.19-23.14-.08-3.2.87-4.46,4.27-4.34,3.08.11,4.57.78,4.48,4.23-.2,7.71-.25,15.43,0,23.13.24,7.85,4,12.06,10.3,12.1,6.45,0,11.48-4.48,11.89-11.7.44-7.68.18-15.41,0-23.12-.07-3.08.61-4.64,4.14-4.45,3.16.18,5,.68,4.8,4.54-.31,6.15-.08,12.33-.08,18.5Z"/><path class="cls-1" d="M1362.59,659.71c-.28-7.1.67-13.12,4.25-18.49,5-7.47,14.17-10.81,22.29-8.12s13,11,12.47,20.16c-.2,3.1-1.69,3.94-4.37,4-7.33.21-14.66.42-22,.72-5,.21-6.12,2-4.19,6.59,2.12,5.09,6.19,7.74,11.57,8.41a33.37,33.37,0,0,0,13.76-1.13c1.64-.5,3.12-.47,3.4,1.77.2,1.69.68,3.21-1.46,4.41-10.65,6-28.6,1.2-34.27-9.08C1362.26,665.69,1363.28,662.22,1362.59,659.71Zm18.47-7.52V652c2.5,0,5-.09,7.49,0,4.29.19,5.34-1.77,4.37-5.73-.92-3.76-3-6.18-6.74-7a12.34,12.34,0,0,0-12.91,4.32c-1.75,2.05-3.66,4.51-2.47,7.24s4.09,1.13,6.24,1.39A35.91,35.91,0,0,0,1381.06,652.19Z"/><path class="cls-1" d="M912.61,638.46c3-.28,4.3-2.21,6-3.34,9.8-6.37,21.69-1.88,23.92,9.52,2,10.28.75,20.81,1,31.22.08,2.86-2,2.71-4,2.78-2.62.09-3.87-.81-3.82-3.67.11-8.11.23-16.23-.06-24.33-.17-4.87-2-9.21-7.35-10.58-5.62-1.43-10.23.4-13.88,4.87-1.72,2.1-2,4.54-2,7.09,0,7.33-.05,14.68.18,22,.1,3.13-.73,4.53-4.11,4.67-3.75.15-3.92-1.73-3.88-4.65.12-11.2,0-22.41.1-33.61,0-2.48-2.23-6.16,2.4-7.07C911,632.61,912.94,634.64,912.61,638.46Z"/><path class="cls-1" d="M634.44,655.78V637.26c0-1.75-.2-3.73,2.28-3.89,1.84-.12,4.15-.66,4.8,2,1,3.78,2.72,2,4.55.87,14.16-8.58,26-2.39,26.71,14,.33,8.1.14,16.21.37,24.3.09,3-1,4.16-4,4.14s-4.18-1.08-4.13-4.09c.14-7.33.22-14.66.1-22-.15-9-3.47-13.07-10.39-13.11-7.39-.05-12.44,5.37-12.42,13.52,0,7.14.08,14.28.35,21.41.11,3.08-1.1,4.07-4,4.09s-4-1.25-4-4.19c.15-6.17.05-12.35.05-18.52Z"/><path class="cls-1" d="M726.61,678.88c-4.43,0-8.86,0-13.3,0-2.07,0-4.54.44-5.54-2-.86-2.13.93-3.58,2.13-5,6.62-8,13.29-16,19.93-24a16.51,16.51,0,0,0,1.41-1.83c1-1.74,3.28-3.28,2-5.57-1.08-2-3.43-1.4-5.29-1.36-4.43.07-8.86.29-13.28.52-2.17.12-4.5.55-4.87-2.51s1.91-3.91,4.35-4.15a154.52,154.52,0,0,1,26-.24c5.43.36,6.81,3.78,3.73,8.37-5.81,8.66-12.85,16.35-19.35,24.48-1.29,1.61-3.5,3.25-2.61,5.41,1,2.41,3.76,1.25,5.72,1.31,4.42.16,8.86-.11,13.29-.12,2.36,0,4.88,0,4.84,3.4,0,3.15-2.09,3.69-4.71,3.66-4.82-.07-9.64,0-14.46,0Z"/><path class="cls-1" d="M1510.82,655.38c-.49-5.54,1.79-11.08,4.92-16.2,3.68-6,15.45-8.84,22.72-5.87s12.81,12.82,11.58,20.24c-.51,3.12-2.47,3.5-4.94,3.54-7.33.13-14.65.43-22,.35-4.64-.05-5.28,2.25-4,5.86,2,5.6,5.91,8.91,11.88,9.52a35.78,35.78,0,0,0,13.18-1.09c1.64-.44,3.5-1.05,4.09,1.57.49,2.16.12,3.73-2.24,4.55C1529.36,683.64,1510.33,678.41,1510.82,655.38Zm18.29-3.45v-.41c2.89,0,5.77,0,8.66,0,3.69.06,4.67-1.55,3.7-5.08a9.65,9.65,0,0,0-7.9-7.48c-5.19-1-9.48.75-12.77,4.82-1.57,2-3.27,4.27-2.08,6.78,1.09,2.33,3.77,1.17,5.78,1.34C1526,652,1527.57,651.93,1529.11,651.93Z"/><path class="cls-1" d="M401.29,655.28c0-5.59,0-11.17,0-16.76,0-2.1-.42-4.5,2.42-5.13,2.34-.52,4.1.24,4.91,2.79.92,2.93,2.66,2,4.44.78a40.18,40.18,0,0,1,5.41-3.31c10-4.57,20.86,1,22,11.91.95,9.36.6,18.85.91,28.29.09,2.9-1.1,4.25-4,4.3-3.21.05-5.27-1-5.21-4.56.11-6.75.33-13.49.36-20.23.05-9.68-2.62-13.47-9.38-13.6-7.49-.15-13.22,6-13.2,14.33q0,9.82.33,19.65c.1,3.08-.93,4.68-4.26,4.66s-5.09-1-5-4.62c.15-6.16,0-12.33,0-18.5Z"/><path class="cls-1" d="M1074,680.11a31.9,31.9,0,0,1-9.69-1.66c-2.41-.76-3.46-2.08-2.71-4.76.83-3,2.47-2.75,4.8-1.82a21.32,21.32,0,0,0,12.52.86,5.3,5.3,0,0,0,4.53-4.56c.35-2.51-.14-4.57-2.84-6.22a96.12,96.12,0,0,0-11.2-5.63c-8-3.55-9.94-12.89-4-19.19,4.72-5,17.33-6.93,23.46-3.82,2.27,1.15,2.26,2.75,1.75,4.8-.58,2.31-2.15,1.76-3.64,1.37-4-1.05-8-1.5-12-.33-2.78.8-5.07,2.41-5.35,5.42-.26,2.83,1.78,4.6,4.19,5.66,3,1.32,6.12,2.34,9.13,3.64,7.29,3.15,10.73,8,10.06,13.87-.64,5.74-5.46,10.21-12.75,11.65C1078.22,679.8,1076.09,679.88,1074,680.11Z"/><path class="cls-1" d="M1439.77,633.2c3.3-.62,4.68,1.12,5.69,4.14,2.66,7.85,5.63,15.6,8.55,23.36.5,1.33.56,3.42,2.57,3.3,1.62-.09,1.63-2,2-3.16,2.5-7.47,6.39-14.44,7.92-22.25a7.14,7.14,0,0,1,3.26-5.06,7.22,7.22,0,0,1,7.18.23c2.12,1.35.06,3.41-.65,5-5.33,12.4-10.76,24.76-16,37.2-.91,2.18-2,2.94-4.28,2.87s-3.47-.36-4.39-2.7c-5-12.74-10.18-25.42-15.42-38.06C1434.66,634.32,1435.37,632.58,1439.77,633.2Z"/><path class="cls-1" d="M278,671.91c.8-.06,1.95-.11,3.1-.25,2.23-.26,3.8.44,4.26,2.82s-.78,3.75-2.95,4.16c-10.28,1.9-20.2,1.35-28.2-6.32-6.78-6.49-7.12-14.8-4.47-23.14,3.19-10,10.92-15.16,20.91-16.88,3.55-.61,7.31-.21,11,0,2.23.15,4.25,1.13,3.85,4-.37,2.64-2.07,3.39-4.6,3.09a24.28,24.28,0,0,0-10.87.81c-8.77,3-13.52,9.75-12.39,17.84,1.18,8.42,7.08,13.36,16.57,13.83C275.32,672,276.48,671.91,278,671.91Z"/></svg>